<svg width="39" height="36" viewBox="0 0 39 36" fill="none" xmlns="http://www.w3.org/2000/svg"><path d="M12 6H9v3h3V6z" fill="black"/><path d="M15 6h-3v3h3V6z" fill="black"/><path d="M9 9H6v3h3V9z" fill="black"/><path d="M9 12H6v3h3v-3z" fill="black"/><path d="M9 15H6v3h3v-3z" fill="black"/><path d="M18 6h-3v3h3V6z" fill="black"/><path d="M12 18H9v3h3v-3z" fill="black"/><path d="M15 21h-3v3h3v-3z" fill="black"/><path d="M18 24h-3v3h3v-3z" fill="black"/><path d="M27 6h3v3h-3V6z" fill="black"/><path d="M24 6h3v3h-3V6z" fill="black"/><path d="M30 9h3v3h-3V9z" fill="black"/><path d="M30 12h3v3h-3v-3z" fill="black"/><path d="M30 15h3v3h-3v-3z" fill="black"/><path d="M21 6h3v3h-3V6z" fill="black"/><path d="M27 18h3v3h-3v-3z" fill="black"/><path d="M24 21h3v3h-3v-3z" fill="black"/><path d="M21 24h3v3h-3v-3z" fill="black"/><path d="M21 9h-3v3h3V9z" fill="black"/><path d="M21 27h-3v3h3v-3z" fill="black"/></svg>